{"title":"B.o.B. ft Rivers Cuomo - Magic [KingPinVideos]","uid":5813493,"size":72965923,"categoryP":"video","categoryS":"music_videos","magnet":"?xt=urn:btih:f04039b51837c3c403d67b9b9c90c7bf25dfaecf&amp;dn=B.o.B.+ft+Rivers+Cuomo+-+Magic+%5BKingPinVideos%5D&amp;tr=udp%3A%2F%2Ftracker.openbittorrent.com%3A80&amp;tr=udp%3A%2F%2Fopen.demonii.com%3A1337&amp;tr=udp%3A%2F%2Ftracker.coppersurfer.tk%3A6969&amp;tr=udp%3A%2F%2Fexodus.desync.com%3A6969","seeders":0,"leechers":0,"uploader":"KingPinMan","files":5,"time":1283747318,"description":"[img]http://a.imageshack.us/img155/2817/bobmagic.png[/img]\n\n[img]http://a.imageshack.us/img534/4079/bobmagic2.png[/img]\n\n[code]General\nComplete name                    : B.o.B. ft Rivers Cuomo - Magic [KingPinVideos].mpg\nFormat                           : MPEG-PS\nFile size                        : 69.6 MiB\nDuration                         : 3mn 24s\nOverall bit rate                 : 2 857 Kbps\nWriting library                  : encoded by TMPGEnc 4.0 XPress Version. 4.7.4.299\n\nVideo\nID                               : 224 (0xE0)\nFormat                           : MPEG Video\nFormat version                   : Version 1\nFormat settings, BVOP            : Yes\nFormat settings, Matrix          : Default\nDuration                         : 3mn 24s\nBit rate mode                    : Constant\nBit rate                         : 2 615 Kbps\nNominal bit rate                 : 2 700 Kbps\nWidth                            : 384 pixels\nHeight                           : 208 pixels\nDisplay aspect ratio             : 16:9\nFrame rate                       : 29.970 fps\nResolution                       : 8 bits\nScan type                        : Progressive\nBits/(Pixel*Frame)               : 1.092\nStream size                      : 63.7 MiB (92%)\nWriting library                  : TMPGEnc XPress 4.7.4.299\n\nAudio\nID                               : 192 (0xC0)\nFormat                           : MPEG Audio\nFormat version                   : Version 1\nFormat profile                   : Layer 2\nDuration                         : 3mn 24s\nBit rate mode                    : Constant\nBit rate                         : 128 Kbps\nChannel(s)                       : 2 channels\nSampling rate                    : 48.0 KHz\nStream size                      : 3.12 MiB (4%)[/code]","torrent":{"xt":"urn:btih:f04039b51837c3c403d67b9b9c90c7bf25dfaecf","amp;dn":"B.o.B.+ft+Rivers+Cuomo+-+Magic+%5BKingPinVideos%5D","amp;tr":["udp%3A%2F%2Ftracker.openbittorrent.com%3A80","udp%3A%2F%2Fopen.demonii.com%3A1337","udp%3A%2F%2Ftracker.coppersurfer.tk%3A6969","udp%3A%2F%2Fexodus.desync.com%3A6969"],"infoHash":"f04039b51837c3c403d67b9b9c90c7bf25dfaecf","infoHashBuffer":{"type":"Buffer","data":[240,64,57,181,24,55,195,196,3,214,123,155,156,144,199,191,37,223,174,207]},"announce":[],"urlList":[]}}